<?xml version="1.0" encoding="utf-8"?>
<!-- Generator: Adobe Illustrator 28.0.0, SVG Export Plug-In . SVG Version: 6.00 Build 0)  -->
<svg version="1.1" id="Layer_1" xmlns="http://www.w3.org/2000/svg" xmlns:xlink="http://www.w3.org/1999/xlink" x="0px" y="0px"
	 viewBox="0 0 180 252" style="enable-background:new 0 0 180 252;" xml:space="preserve">
<style type="text/css">
	.st0{fill:#742449;}
	.st1{fill:#EC3E25;}
	.st2{fill:#EF7A22;}
	.st3{clip-path:url(#SVGID_00000067194281332971625040000012021760206742925470_);fill:#7189C1;}
	.st4{fill:#F26C4C;}
	.st5{fill:#E92E27;}
	.st6{clip-path:url(#SVGID_00000109750010418117182440000010713246575363518878_);fill:#E5C1CF;}
	.st7{clip-path:url(#SVGID_00000109750010418117182440000010713246575363518878_);fill:#B44E79;}
	.st8{fill:#EACBD5;}
	.st9{clip-path:url(#SVGID_00000075151572990851616020000006897996518649235599_);fill:#7189C1;}
	.st10{clip-path:url(#SVGID_00000148637264966079565890000011494215835012464525_);fill:#E5C1CF;}
	.st11{clip-path:url(#SVGID_00000051368835864974078240000002720216396891329922_);fill:#7189C1;}
	.st12{clip-path:url(#SVGID_00000101065940339476319010000001723077668245673105_);fill:#B44E79;}
	.st13{clip-path:url(#SVGID_00000056408309875633321230000002023687767483714455_);fill:#7189C1;}
	.st14{clip-path:url(#SVGID_00000114770852299148983150000017910221096000083608_);fill:#E5C1CF;}
	.st15{clip-path:url(#SVGID_00000114770852299148983150000017910221096000083608_);fill:#B44E79;}
	.st16{clip-path:url(#SVGID_00000061438120793441358130000003803708699263737488_);fill:#FFFFFF;}
	.st17{fill:#B44E79;}
	.st18{fill:#FFFFFF;}
</style>
<g>
	<polygon class="st0" points="-13.4,-15.2 -13.4,19.4 90.2,122.9 193.4,19.7 193.4,-7.3 185.4,-15.2 	"/>
	<g>
		<defs>
			<rect id="SVGID_1_" x="-13.4" y="-15.2" width="206.7" height="282.4"/>
		</defs>
		<clipPath id="SVGID_00000123410044499278410710000016697838291239606149_">
			<use xlink:href="#SVGID_1_"  style="overflow:visible;"/>
		</clipPath>
		<path style="clip-path:url(#SVGID_00000123410044499278410710000016697838291239606149_);fill:#7189C1;" d="M154.1-27.5
			c5.5,26.3-2,54.8-22.4,75.2C99.4,79.9,47.2,79.9,15,47.7C-5.5,27.3-12.9-1.2-7.5-27.5H154.1z"/>
	</g>
	<polygon class="st1" points="-13.4,-15.2 -13.4,19.4 90.2,122.9 90.2,-15.2 	"/>
	<polygon class="st2" points="77.9,-15.2 15,47.7 90.2,122.9 90.2,-15.2 	"/>
	<polygon class="st4" points="56.5,-15.2 56.5,6.2 193.4,6.2 193.4,-7.3 185.4,-15.2 	"/>
	<polygon class="st5" points="77.9,-15.2 56.5,6.2 193.4,6.2 193.4,-7.3 185.4,-15.2 	"/>
	<g>
		<defs>
			<rect id="SVGID_00000005952506064588796770000018203291395931803806_" x="-13.4" y="-15.2" width="206.7" height="282.4"/>
		</defs>
		<clipPath id="SVGID_00000082333427137119879040000009172319551874635904_">
			<use xlink:href="#SVGID_00000005952506064588796770000018203291395931803806_"  style="overflow:visible;"/>
		</clipPath>
		<path style="clip-path:url(#SVGID_00000082333427137119879040000009172319551874635904_);fill:#E5C1CF;" d="M56.5,6.2h97.6
			c2.3-11.1,2.3-22.6,0-33.7H90.2L56.5,6.2z"/>
		<path style="clip-path:url(#SVGID_00000082333427137119879040000009172319551874635904_);fill:#B44E79;" d="M-7.5-27.5
			c-5.5,26.3,2,54.8,22.4,75.2l75.2-75.2H-7.5z"/>
	</g>
	<rect x="56.5" y="-15.2" class="st8" width="33.7" height="21.4"/>
	<polygon class="st0" points="-13.4,226.5 90.2,122.9 -13.4,19.4 	"/>
	<g>
		<defs>
			<rect id="SVGID_00000005243705879872876710000002264258527922057618_" x="-13.4" y="-15.2" width="206.7" height="282.4"/>
		</defs>
		<clipPath id="SVGID_00000085961805156690803500000007943034717744018069_">
			<use xlink:href="#SVGID_00000005243705879872876710000002264258527922057618_"  style="overflow:visible;"/>
		</clipPath>
		<path style="clip-path:url(#SVGID_00000085961805156690803500000007943034717744018069_);fill:#7189C1;" d="M15,47.7
			c32.2,32.2,32.2,84.5,0,116.7c-20.4,20.4-48.9,27.9-75.2,22.4V25.3C-33.9,19.8-5.5,27.3,15,47.7"/>
	</g>
	<polygon class="st4" points="-13.4,122.9 90.2,122.9 -13.4,19.4 	"/>
	<polygon class="st5" points="-13.4,76.1 -13.4,122.9 90.2,122.9 15,47.7 	"/>
	<g>
		<defs>
			<rect id="SVGID_00000119085083455628044840000000331376469185572249_" x="-13.4" y="-15.2" width="206.7" height="282.4"/>
		</defs>
		<clipPath id="SVGID_00000092443899385213853190000011621463178834267314_">
			<use xlink:href="#SVGID_00000119085083455628044840000000331376469185572249_"  style="overflow:visible;"/>
		</clipPath>
		<path style="clip-path:url(#SVGID_00000092443899385213853190000011621463178834267314_);fill:#E5C1CF;" d="M-60.2,122.9h97.6
			c5.5-26.3-2-54.8-22.4-75.2L-60.2,122.9z"/>
	</g>
	<polygon class="st0" points="90.2,122.9 193.4,226.1 193.4,19.7 	"/>
	<g>
		<defs>
			<rect id="SVGID_00000114066394407458622770000018170147247699093694_" x="-13.4" y="-15.2" width="206.7" height="282.4"/>
		</defs>
		<clipPath id="SVGID_00000178185622252503038520000014906195424749723270_">
			<use xlink:href="#SVGID_00000114066394407458622770000018170147247699093694_"  style="overflow:visible;"/>
		</clipPath>
		<path style="clip-path:url(#SVGID_00000178185622252503038520000014906195424749723270_);fill:#7189C1;" d="M240.6,220.5
			c-26.3,5.5-54.8-2-75.2-22.4c-32.2-32.2-32.2-84.5,0-116.7C185.8,61,214.3,53.5,240.6,59V220.5z"/>
	</g>
	<polygon class="st1" points="90.2,122.9 193.4,226.1 193.4,122.9 	"/>
	<polygon class="st2" points="165.4,198.1 193.4,226.1 193.4,170.1 	"/>
	<g>
		<defs>
			<rect id="SVGID_00000054241938284856159950000005762105209681128090_" x="-13.4" y="-15.2" width="206.7" height="282.4"/>
		</defs>
		<clipPath id="SVGID_00000129181314825760780240000004610932305244860602_">
			<use xlink:href="#SVGID_00000054241938284856159950000005762105209681128090_"  style="overflow:visible;"/>
		</clipPath>
		<path style="clip-path:url(#SVGID_00000129181314825760780240000004610932305244860602_);fill:#B44E79;" d="M240.6,122.9h-97.6
			c-5.5,26.3,2,54.8,22.4,75.2L240.6,122.9z"/>
	</g>
	<polygon class="st0" points="-13.4,226.5 -13.4,252.8 1.1,267.2 193.4,267.2 193.4,226.1 90.2,122.9 	"/>
	<g>
		<defs>
			<rect id="SVGID_00000177451617419298548380000001318794350365842568_" x="-13.4" y="-15.2" width="206.7" height="282.4"/>
		</defs>
		<clipPath id="SVGID_00000005251896709085974140000013557809175058605971_">
			<use xlink:href="#SVGID_00000177451617419298548380000001318794350365842568_"  style="overflow:visible;"/>
		</clipPath>
		<path style="clip-path:url(#SVGID_00000005251896709085974140000013557809175058605971_);fill:#7189C1;" d="M165.4,198.1
			c20.4,20.4,27.9,48.9,22.4,75.2H26.3c-5.5-26.3,2-54.8,22.4-75.2C80.9,165.9,133.2,165.9,165.4,198.1"/>
	</g>
	<polygon class="st1" points="-13.4,239.6 -13.4,252.8 1.1,267.2 123.9,267.2 123.9,239.6 	"/>
	<polygon class="st2" points="96.3,267.2 123.9,267.2 123.9,239.6 	"/>
	<polygon class="st4" points="90.2,267.2 193.4,267.2 193.4,226.1 90.2,122.9 	"/>
	<polygon class="st5" points="96.3,267.2 193.4,267.2 193.4,226.1 165.4,198.1 	"/>
	<g>
		<defs>
			<rect id="SVGID_00000105419311060217805930000010437303879666507402_" x="-13.4" y="-15.2" width="206.7" height="282.4"/>
		</defs>
		<clipPath id="SVGID_00000082336320625952138230000006527773653130610608_">
			<use xlink:href="#SVGID_00000105419311060217805930000010437303879666507402_"  style="overflow:visible;"/>
		</clipPath>
		<path style="clip-path:url(#SVGID_00000082336320625952138230000006527773653130610608_);fill:#E5C1CF;" d="M122.7,273.3h65.1
			c5.5-26.3-2-54.8-22.4-75.2l-75.2,75.2H122.7z"/>
		<path style="clip-path:url(#SVGID_00000082336320625952138230000006527773653130610608_);fill:#B44E79;" d="M123.9,239.6H26.3
			c-2.3,11.1-2.3,22.6,0,33.7h63.9L123.9,239.6z"/>
	</g>
	<rect x="90.2" y="239.6" class="st8" width="33.7" height="27.6"/>
	<g>
		<defs>
			<rect id="SVGID_00000177483342119637213230000012794692158904071050_" x="-13.4" y="-15.2" width="206.7" height="282.4"/>
		</defs>
		<clipPath id="SVGID_00000101815978333196134390000004545854318391531701_">
			<use xlink:href="#SVGID_00000177483342119637213230000012794692158904071050_"  style="overflow:visible;"/>
		</clipPath>
		<path style="clip-path:url(#SVGID_00000101815978333196134390000004545854318391531701_);fill:#FFFFFF;" d="M133.5,158.5H16.9
			c-1.6,0-2.9-1.3-2.9-2.9V126c0-17.9,14.5-32.5,32.5-32.5h87c17.9,0,32.5,14.5,32.5,32.5S151.5,158.5,133.5,158.5"/>
	</g>
	<g>
		<path class="st0" d="M46.8,134.3c1.4,0,2.2-0.6,2.2-1.3c0-0.6-0.4-1-1.7-1.2l-3.4-0.7c-3.1-0.6-4.9-2.2-4.9-4.9
			c0-3.4,3-5.7,7.2-5.7c4.2,0,7,1.9,7.6,4.8l-4.9,1c-0.2-1-1.2-2-2.8-2c-1.4,0-1.9,0.7-1.9,1.3c0,0.5,0.2,0.9,1.3,1.2l4,0.8
			c3.2,0.7,4.7,2.6,4.7,5.1c0,3.7-3.2,5.7-7.6,5.7c-4,0-7.3-1.4-7.9-4.9l5.2-1.1C44.1,133.8,45.4,134.3,46.8,134.3z"/>
		<path class="st0" d="M74,127.5v10.3h-5.3v-9.2c0-2-1.2-3.3-2.9-3.3c-2.1,0-3.4,1.4-3.4,4.7v7.8H57v-24.1h5.4v8.9
			c1.3-1.3,3-2.1,5.2-2.1C71.4,120.5,74,123.3,74,127.5z"/>
		<path class="st0" d="M95.1,129.4c0,5.3-4.2,8.9-9.2,8.9c-5.1,0-9.3-3.5-9.3-8.9c0-5.3,4.2-8.8,9.3-8.8
			C90.9,120.6,95.1,124.1,95.1,129.4z M90,129.4c0-2.6-2-4.4-4.1-4.4c-2.2,0-4.2,1.7-4.2,4.4c0,2.6,2,4.4,4.2,4.4
			C88,133.7,90,132,90,129.4z"/>
		<path class="st0" d="M110.2,120.9l-0.2,5.4h-1c-3.8,0-5.8,1.9-5.8,6.3v5.3h-5.4V121h5.4v3.2c1.2-2,3-3.4,5.8-3.4
			C109.5,120.8,109.8,120.8,110.2,120.9z"/>
		<path class="st0" d="M120.4,138.3c-4.2,0-6.7-2.3-6.7-6.7v-6.4h-3V121h3v-5h5.4v5h5v4.3h-5v5.8c0,1.7,0.8,2.4,2.2,2.4
			c0.7,0,1.7-0.3,2.4-0.7l1.2,4.2C123.7,137.8,122.3,138.3,120.4,138.3z"/>
		<path class="st0" d="M134.1,134.3c1.4,0,2.2-0.6,2.2-1.3c0-0.6-0.4-1-1.7-1.2l-3.4-0.7c-3.1-0.6-4.9-2.2-4.9-4.9
			c0-3.4,3-5.7,7.2-5.7c4.2,0,7,1.9,7.6,4.8l-4.9,1c-0.2-1-1.2-2-2.8-2c-1.4,0-1.9,0.7-1.9,1.3c0,0.5,0.2,0.9,1.3,1.2l4,0.8
			c3.2,0.7,4.7,2.6,4.7,5.1c0,3.7-3.2,5.7-7.6,5.7c-4,0-7.3-1.4-7.9-4.9l5.2-1.1C131.3,133.8,132.6,134.3,134.1,134.3z"/>
	</g>
</g>
</svg>
