<?xml version="1.0" encoding="utf-8"?>
<!-- Generator: Adobe Illustrator 28.0.0, SVG Export Plug-In . SVG Version: 6.00 Build 0)  -->
<svg version="1.1" id="Layer_1" xmlns="http://www.w3.org/2000/svg" xmlns:xlink="http://www.w3.org/1999/xlink" x="0px" y="0px"
	 viewBox="0 0 180 252" style="enable-background:new 0 0 180 252;" xml:space="preserve">
<style type="text/css">
	.st0{fill:#EF7A22;}
	.st1{fill:#FFFFFF;}
	.st2{fill:#B44E79;}
	.st3{fill:#E92E27;}
	.st4{fill:#742449;}
</style>
<g>
	<polygon class="st4" points="154.6,-1 139.7,-1 112.1,-1 111.4,-1 89.7,-1 47.3,-1 34.6,-1 12.2,-1 -9.1,-1 -9.1,82.1 24.9,82.1 
		67.4,82.1 89.7,82.1 132.2,82.1 132.2,82.1 144.9,82.1 167.3,82.1 189.1,82.1 189.1,-1 	"/>
</g>
<g>
	<polygon class="st4" points="154.6,0 139.7,0 112.1,0 111.4,0 89.7,0 47.3,0 34.6,0 12.2,0 -9.1,0 -9.1,83.1 24.9,83.1 67.4,83.1 
		89.7,83.1 132.2,83.1 132.2,83.1 144.9,83.1 167.3,83.1 189.1,83.1 189.1,0 	"/>
</g>
<path class="st1" d="M133.5,74.1H16.9c-1.6,0-2.9-1.3-2.9-2.9V41.5C14,23.6,28.5,9,46.5,9h87C151.4,9,166,23.5,166,41.5
	S151.5,74.1,133.5,74.1"/>
<g>
	<path class="st4" d="M62,53.2c-4.2,0-6.8-2.3-6.8-6.8v-6.5h-3.1v-4.2h3.1v-5h5.4v5h5V40h-5v5.9c0,1.8,0.8,2.5,2.3,2.5
		c0.7,0,1.8-0.3,2.5-0.7l1.3,4.3C65.3,52.7,63.9,53.2,62,53.2z"/>
	<path class="st4" d="M71.3,58.5l2.8-6.4L67,35.6h5.8l4,10l4.3-10H87l-9.9,22.9H71.3z"/>
	<path class="st4" d="M108.3,44.2c0,5.4-3.8,9-8.3,9c-2.2,0-4-0.7-5.3-1.9v7.1h-5.4V35.7h5.4v1.4c1.3-1.2,3.1-1.9,5.3-1.9
		C104.5,35.2,108.3,38.8,108.3,44.2z M103,44.2c0-2.6-1.7-4.4-4.1-4.4c-2.2,0-4.2,1.8-4.2,4.4c0,2.7,2,4.4,4.2,4.4
		C101.3,48.6,103,46.8,103,44.2z"/>
	<path class="st4" d="M115.4,45.6c0.4,2,1.8,3.3,3.7,3.3c1.3,0,2.7-0.3,3.6-2l4.8,1c-1.5,3.6-4.6,5.3-8.5,5.3c-4.9,0-9-3.6-9-9
		s4.1-9,9-9c4.8,0,8.7,3.5,8.8,9v1.4H115.4z M115.5,42.3h7c-0.5-1.8-1.9-2.7-3.4-2.7C117.6,39.6,116,40.5,115.5,42.3z"/>
</g>
</svg>
