<?xml version="1.0" encoding="utf-8"?>
<!-- Generator: Adobe Illustrator 28.0.0, SVG Export Plug-In . SVG Version: 6.00 Build 0)  -->
<svg version="1.1" id="Layer_1" xmlns="http://www.w3.org/2000/svg" xmlns:xlink="http://www.w3.org/1999/xlink" x="0px" y="0px"
	 viewBox="0 0 180 252" style="enable-background:new 0 0 180 252;" xml:space="preserve">
<style type="text/css">
	.st0{fill:#EF7A22;}
	.st1{fill:#FFFFFF;}
	.st2{fill:#B44E79;}
	.st3{fill:#E92E27;}
	.st4{fill:#742449;}
</style>
<g>
	<polygon class="st0" points="154.6,0 139.7,0 112.1,0 111.4,0 89.7,0 47.3,0 34.6,0 12.2,0 -9.1,0 -9.1,83.2 24.9,83.2 67.4,83.2 
		89.7,83.2 132.2,83.2 132.2,83.2 144.9,83.2 167.3,83.2 189.1,83.2 189.1,0 	"/>
</g>
<path class="st1" d="M133.5,74.1H16.9c-1.6,0-2.9-1.3-2.9-2.9V41.5C14,23.6,28.5,9,46.5,9h87C151.4,9,166,23.5,166,41.5
	S151.5,74.1,133.5,74.1"/>
<g>
	<path class="st0" d="M76.8,44.1c0,5.4-3.8,9-8.3,9c-2.2,0-4-0.7-5.3-1.9v7.1h-5.4V35.6h5.4V37c1.3-1.2,3.1-1.9,5.3-1.9
		C73,35.1,76.8,38.7,76.8,44.1z M71.4,44.1c0-2.6-1.7-4.4-4.1-4.4c-2.2,0-4.2,1.8-4.2,4.4c0,2.7,2,4.4,4.2,4.4
		C69.7,48.5,71.4,46.7,71.4,44.1z"/>
	<path class="st0" d="M79.6,28.2H85v24.4h-5.4V28.2z"/>
	<path class="st0" d="M106.6,44.1c0,5.4-4.3,9-9.3,9c-5.2,0-9.5-3.6-9.5-9s4.3-9,9.5-9C102.4,35.1,106.6,38.7,106.6,44.1z
		 M101.4,44.1c0-2.7-2-4.4-4.1-4.4c-2.2,0-4.2,1.8-4.2,4.4c0,2.7,2,4.4,4.2,4.4C99.4,48.5,101.4,46.8,101.4,44.1z"/>
	<path class="st0" d="M117.5,53.1c-4.2,0-6.8-2.3-6.8-6.8v-6.5h-3.1v-4.2h3.1v-5h5.4v5h5v4.3h-5v5.9c0,1.8,0.8,2.5,2.3,2.5
		c0.7,0,1.8-0.3,2.5-0.7l1.3,4.3C120.8,52.6,119.4,53.1,117.5,53.1z"/>
</g>
</svg>
