<?xml version="1.0" encoding="utf-8"?>
<!-- Generator: Adobe Illustrator 28.0.0, SVG Export Plug-In . SVG Version: 6.00 Build 0)  -->
<svg version="1.1" id="Layer_1" xmlns="http://www.w3.org/2000/svg" xmlns:xlink="http://www.w3.org/1999/xlink" x="0px" y="0px"
	 viewBox="0 0 180 252" style="enable-background:new 0 0 180 252;" xml:space="preserve">
<style type="text/css">
	.st0{fill:#EF7A22;}
	.st1{fill:#FFFFFF;}
	.st2{fill:#B44E79;}
	.st3{fill:#E92E27;}
	.st4{fill:#742449;}
</style>
<g>
	<polygon class="st3" points="154.6,0 139.7,0 112.1,0 111.4,0 89.7,0 47.3,0 34.6,0 12.2,0 -9.1,0 -9.1,83.2 24.9,83.2 67.4,83.2 
		89.7,83.2 132.2,83.2 132.2,83.2 144.9,83.2 167.3,83.2 189.1,83.2 189.1,0 	"/>
</g>
<path class="st1" d="M133.5,74.1H16.9c-1.6,0-2.9-1.3-2.9-2.9V41.5C14,23.6,28.5,9,46.5,9h87C151.4,9,166,23.5,166,41.5
	S151.5,74.1,133.5,74.1"/>
<g>
	<path class="st3" d="M62.6,53.1c-4.2,0-6.8-2.3-6.8-6.8v-6.5h-3.1v-4.3h3.1v-5h5.4v5h5v4.3h-5v5.9c0,1.8,0.8,2.5,2.3,2.5
		c0.7,0,1.8-0.3,2.5-0.7l1.3,4.3C66,52.5,64.6,53.1,62.6,53.1z"/>
	<path class="st3" d="M86.7,44c0,5.4-4.3,9-9.3,9c-5.2,0-9.5-3.6-9.5-9s4.3-9,9.5-9C82.4,35.1,86.7,38.7,86.7,44z M81.5,44
		c0-2.7-2-4.4-4.1-4.4c-2.2,0-4.2,1.8-4.2,4.4c0,2.7,2,4.4,4.2,4.4C79.5,48.5,81.5,46.7,81.5,44z"/>
	<path class="st3" d="M106.8,42.1v10.5h-5.4v-9.3c0-2-1.2-3.4-2.9-3.4c-2.1,0-3.5,1.5-3.5,4.8v7.9h-5.4V35.5H95v1.6
		c1.3-1.4,3.1-2.1,5.2-2.1C104.2,35,106.8,37.8,106.8,42.1z"/>
	<path class="st3" d="M114.8,45.4c0.4,2,1.8,3.3,3.7,3.3c1.3,0,2.7-0.3,3.6-2l4.8,1c-1.5,3.6-4.6,5.3-8.5,5.3c-4.9,0-9-3.6-9-9
		s4.1-9,9-9c4.8,0,8.7,3.5,8.8,9v1.4H114.8z M114.9,42.1h7c-0.5-1.8-1.9-2.7-3.4-2.7C116.9,39.4,115.4,40.4,114.9,42.1z"/>
</g>
</svg>
