<?xml version="1.0" encoding="utf-8"?>
<!-- Generator: Adobe Illustrator 28.0.0, SVG Export Plug-In . SVG Version: 6.00 Build 0)  -->
<svg version="1.1" id="Layer_1" xmlns="http://www.w3.org/2000/svg" xmlns:xlink="http://www.w3.org/1999/xlink" x="0px" y="0px"
	 viewBox="0 0 180 252" style="enable-background:new 0 0 180 252;" xml:space="preserve">
<style type="text/css">
	.st0{fill:#EF7A22;}
	.st1{fill:#FFFFFF;}
	.st2{fill:#B44E79;}
	.st3{fill:#E92E27;}
	.st4{fill:#742449;}
</style>
<g>
	<polygon class="st2" points="154.6,0 139.7,0 112.1,0 111.4,0 89.7,0 47.3,0 34.6,0 12.2,0 -9.1,0 -9.1,83.2 24.9,83.2 67.4,83.2 
		89.7,83.2 132.2,83.2 132.2,83.2 144.9,83.2 167.3,83.2 189.1,83.2 189.1,0 	"/>
</g>
<path class="st1" d="M133.5,74.1H16.9c-1.6,0-2.9-1.3-2.9-2.9V41.5C14,23.6,28.5,9,46.5,9h87C151.4,9,166,23.5,166,41.5
	S151.5,74.1,133.5,74.1"/>
<g>
	<path class="st2" d="M40.4,48.6c1.4,0,2.2-0.6,2.2-1.4c0-0.6-0.4-1-1.7-1.3l-3.5-0.7c-3.2-0.6-5-2.3-5-5c0-3.5,3-5.8,7.3-5.8
		c4.2,0,7.1,1.9,7.8,4.9l-5,1c-0.2-1.1-1.2-2-2.9-2c-1.5,0-1.9,0.7-1.9,1.3c0,0.5,0.2,1,1.3,1.2l4,0.8c3.2,0.7,4.7,2.6,4.7,5.1
		c0,3.8-3.3,5.7-7.8,5.7c-4,0-7.4-1.5-8-5l5.3-1.1C37.6,48.1,38.9,48.6,40.4,48.6z"/>
	<path class="st2" d="M54.8,45c0.4,2,1.8,3.3,3.7,3.3c1.3,0,2.7-0.3,3.6-2l4.8,1c-1.5,3.6-4.6,5.3-8.5,5.3c-4.9,0-9-3.6-9-9
		s4.1-9,9-9c4.8,0,8.7,3.5,8.8,9V45H54.8z M54.9,41.7h7C61.4,39.9,60,39,58.5,39C57,39,55.5,40,54.9,41.7z"/>
	<path class="st2" d="M78.2,52.7c-4.2,0-6.8-2.3-6.8-6.8v-6.5h-3.1v-4.3h3.1v-5h5.4v5h5v4.3h-5v5.9c0,1.8,0.8,2.5,2.3,2.5
		c0.7,0,1.8-0.3,2.5-0.7l1.3,4.3C81.5,52.1,80.1,52.7,78.2,52.7z"/>
	<path class="st2" d="M92.9,52.7c-4.2,0-6.8-2.3-6.8-6.8v-6.5H83v-4.3h3.1v-5h5.4v5h5v4.3h-5v5.9c0,1.8,0.8,2.5,2.3,2.5
		c0.7,0,1.8-0.3,2.5-0.7l1.3,4.3C96.2,52.1,94.8,52.7,92.9,52.7z"/>
	<path class="st2" d="M105.8,30.1c0,1.7-1.3,3-3.2,3c-1.8,0-3.1-1.3-3.1-3s1.3-3.1,3.1-3.1C104.4,27,105.8,28.4,105.8,30.1z
		 M99.9,35.1h5.4v17.1h-5.4V35.1z"/>
	<path class="st2" d="M126.9,41.7v10.5h-5.4v-9.3c0-2-1.2-3.4-2.9-3.4c-2.1,0-3.5,1.5-3.5,4.8v7.9h-5.4V35.1h5.4v1.6
		c1.3-1.4,3.1-2.1,5.2-2.1C124.2,34.6,126.9,37.4,126.9,41.7z"/>
	<path class="st2" d="M138.6,58.6c-3.9,0-6.9-1.4-8.6-4.1l4.5-2.4c1.3,1.5,2.2,2.1,4,2.1c2.5,0,4.2-1.5,4.2-4.1v-0.5
		c-1.2,1.1-2.9,1.6-5.1,1.6c-4.5,0-8.2-3.5-8.2-8.4c0-4.7,3.8-8.2,8.2-8.2c2.2,0,3.9,0.6,5.1,1.6v-1.1h5.3v15.4
		C148.1,55.7,144.1,58.6,138.6,58.6z M142.8,42.8c0-2.3-1.8-3.9-4-3.9c-2.4,0-4.1,1.6-4.1,3.9s1.7,3.9,4.1,3.9
		C141,46.7,142.8,45.1,142.8,42.8z"/>
</g>
</svg>
