<svg width="25" height="25" viewBox="0 0 25 25" fill="none" xmlns="http://www.w3.org/2000/svg">
<path d="M13 15.5V11H11V12H12V15.5H10.5V16.5H14.5V15.5H13Z" fill="#742449"/>
<path d="M12.5 8C12.3517 8 12.2067 8.04399 12.0833 8.1264C11.96 8.20881 11.8639 8.32595 11.8071 8.46299C11.7503 8.60004 11.7355 8.75084 11.7644 8.89632C11.7934 9.04181 11.8648 9.17544 11.9697 9.28033C12.0746 9.38522 12.2082 9.45665 12.3537 9.48559C12.4992 9.51453 12.65 9.49968 12.787 9.44291C12.9241 9.38615 13.0412 9.29002 13.1236 9.16668C13.206 9.04334 13.25 8.89834 13.25 8.75C13.25 8.55109 13.171 8.36033 13.0303 8.21967C12.8897 8.07902 12.6989 8 12.5 8Z" fill="#742449"/>
<path d="M12.5 19.5C11.1155 19.5 9.76216 19.0895 8.61101 18.3203C7.45987 17.5511 6.56266 16.4579 6.03285 15.1788C5.50303 13.8997 5.36441 12.4922 5.63451 11.1344C5.9046 9.7765 6.57129 8.52922 7.55026 7.55026C8.52922 6.57129 9.7765 5.9046 11.1344 5.63451C12.4922 5.36441 13.8997 5.50303 15.1788 6.03285C16.4579 6.56266 17.5511 7.45987 18.3203 8.61101C19.0895 9.76216 19.5 11.1155 19.5 12.5C19.5 14.3565 18.7625 16.137 17.4497 17.4497C16.137 18.7625 14.3565 19.5 12.5 19.5ZM12.5 6.5C11.3133 6.5 10.1533 6.8519 9.16658 7.51119C8.17989 8.17047 7.41085 9.10755 6.95673 10.2039C6.5026 11.3003 6.38378 12.5067 6.61529 13.6705C6.8468 14.8344 7.41825 15.9035 8.25736 16.7426C9.09648 17.5818 10.1656 18.1532 11.3295 18.3847C12.4933 18.6162 13.6997 18.4974 14.7961 18.0433C15.8925 17.5892 16.8295 16.8201 17.4888 15.8334C18.1481 14.8467 18.5 13.6867 18.5 12.5C18.5 10.9087 17.8679 9.38258 16.7426 8.25736C15.6174 7.13214 14.0913 6.5 12.5 6.5Z" fill="#742449"/>
</svg>
